<svg width="512" height="512" viewBox="0 0 512 512" fill="none" xmlns="http://www.w3.org/2000/svg">
<path d="M75.4823 0.5112C61.4738 2.31134 47.215 7.86176 35.9581 15.8624C33.3565 17.7125 28.4035 22.0128 24.9514 25.4631C15.3455 35.0138 8.99158 45.2145 4.53885 58.2155C2.18741 65.066 1.28686 69.3163 0.436335 77.4669C0.0360901 81.7173 -0.0639712 132.371 0.0360901 269.731L0.186182 456.245L1.33689 461.546C4.98913 478.847 15.3455 492.948 31.9557 503.399C35.5579 505.649 42.5622 508.599 46.9148 509.749C56.2205 512.099 45.614 511.999 256.443 511.999C462.52 511.999 455.465 512.049 464.321 510.049C476.578 507.249 491.137 497.398 499.342 486.447C505.246 478.547 508.148 472.346 510.599 462.746L512 457.245V266.481V75.7168L510.849 69.9164C507.948 55.1153 501.393 41.3143 491.988 30.4634C477.279 13.4122 459.268 3.56143 437.504 0.661224C432.801 0.0611877 407.036 -0.0388184 255.393 0.0111694C158.233 0.0611877 77.2834 0.2612 75.4823 0.5112Z" fill="#F5F0E8"/>
<path d="M330.746 132.738C333.896 154.04 333.546 173.191 329.796 191.393C324.645 216.294 310.194 236.646 289.893 247.597C279.642 253.097 269.741 256.247 254.14 258.898C241.989 260.998 238.989 262.048 236.689 265.048C234.589 267.848 233.888 270.548 234.139 274.949C234.539 280.849 237.639 286.35 242.739 290.15C249.29 294.95 257.04 297.55 273.541 300.451C277.292 301.151 281.942 301.351 295.793 301.401C306.244 301.501 314.845 301.751 317.145 302.101C319.245 302.451 324.095 303.701 327.896 304.951C337.546 308.101 342.897 309.201 349.547 309.501C355.098 309.701 361.198 308.951 367.798 307.251C370.599 306.501 370.549 306.901 367.698 308.301C356.898 313.702 342.897 314.052 326.845 309.301C325.595 308.951 328.946 313.052 334.046 318.152C336.846 320.952 338.896 322.502 342.047 324.102C345.697 325.953 345.997 326.203 344.297 325.903C338.146 324.853 333.896 322.402 326.895 315.802C318.495 307.851 314.545 306.251 304.594 306.851C301.394 307.051 297.943 307.351 296.843 307.551L294.943 307.901L298.343 310.251C303.294 313.702 305.394 315.752 310.144 322.202C315.945 330.053 319.495 332.853 327.896 336.053C330.896 337.203 333.796 337.854 338.646 338.454C348.647 339.604 353.547 341.154 357.048 344.104L358.298 345.154L355.548 344.054C351.797 342.604 347.197 341.804 338.346 341.204C329.446 340.554 325.245 339.604 320.145 337.103C317.995 336.053 316.195 335.303 316.095 335.453C315.745 335.803 318.595 342.254 320.845 346.154C324.695 352.805 329.746 358.055 336.496 362.355C338.496 363.655 340.046 364.806 339.896 364.956C339.746 365.106 338.196 364.556 336.396 363.755C328.496 360.155 320.845 353.805 316.445 347.104L313.844 343.154L312.694 346.254C310.494 352.455 310.044 356.805 311.344 360.505C311.644 361.305 311.594 361.305 310.944 360.655C308.594 358.305 307.894 351.905 309.344 345.154C309.844 342.804 310.044 340.004 309.894 337.753C309.744 334.603 309.344 333.403 307.094 328.903C304.944 324.553 303.894 323.102 300.443 319.702C297.043 316.302 295.543 315.252 291.243 313.152C286.742 310.951 280.192 308.851 275.192 307.951L273.591 307.701L274.842 309.551C275.542 310.551 276.692 312.502 277.392 313.902C279.392 317.952 282.242 320.502 287.292 322.852C291.143 324.703 295.493 327.853 294.893 328.453C294.793 328.553 293.493 328.003 291.993 327.203C290.493 326.403 287.843 325.353 286.042 324.903C284.292 324.453 282.192 323.752 281.392 323.302C280.592 322.902 279.842 322.702 279.692 322.852C279.292 323.252 281.542 329.653 283.242 332.903C284.242 334.853 286.292 337.353 289.043 340.004C291.343 342.304 293.093 344.154 292.843 344.154C291.743 344.154 283.842 338.354 281.792 336.003C278.992 332.803 275.942 327.003 274.742 322.652C272.841 315.602 270.391 311.902 265.841 308.901C263.341 307.251 262.491 306.951 253.09 304.401C247.239 302.801 242.039 300.651 238.639 298.451C237.239 297.5 236.039 296.8 236.039 296.9C236.039 297 236.789 298.751 237.739 300.751C240.239 306.201 244.539 312.202 250.59 318.652C253.54 321.802 258.29 327.553 261.191 331.403C267.391 339.604 271.691 344.004 277.542 347.904C289.543 356.005 295.693 362.055 299.193 368.956C302.194 374.906 303.444 378.707 304.294 384.307C304.644 386.857 304.894 388.957 304.794 389.057C304.744 389.107 303.944 386.857 303.094 384.057C301.094 377.756 297.843 371.506 294.193 367.006C291.843 364.155 288.143 360.655 287.442 360.655C287.342 360.655 287.342 361.455 287.442 362.405C287.743 364.806 286.892 368.006 284.442 373.656C282.892 377.356 282.392 379.257 282.142 382.407L281.842 386.407L281.242 384.407C280.242 381.257 280.442 378.807 282.092 372.106C284.442 362.805 283.642 358.405 278.992 354.655C276.492 352.705 268.391 347.154 268.191 347.304C268.141 347.404 268.341 348.404 268.591 349.654C269.291 352.655 268.691 356.705 266.991 361.005C265.241 365.306 265.091 368.906 266.591 372.106L267.591 374.356L266.491 373.356C263.491 370.706 262.841 365.756 264.591 359.305C266.091 353.805 265.691 349.304 263.241 344.304C262.241 342.304 260.54 339.704 259.49 338.504L257.59 336.403L257.54 338.454C257.49 344.004 253.49 351.605 247.34 357.605L244.139 360.805L247.99 368.356C253.64 379.407 256.04 387.807 255.99 396.158C255.94 401.758 255.29 403.258 254.84 398.908C253.79 389.407 251.44 382.607 245.689 372.406C243.989 369.406 241.189 364.756 240.739 364.255C240.539 363.955 238.789 365.906 236.089 369.406C231.338 375.606 228.388 382.857 227.738 389.857C227.538 391.958 227.188 393.508 226.988 393.358C226.238 392.908 226.488 384.357 227.338 380.507C228.388 375.756 231.788 368.806 235.289 364.205L238.139 360.555L237.389 358.705C236.989 357.705 235.989 355.305 235.139 353.405C234.339 351.455 233.388 348.704 233.088 347.254C232.738 345.854 232.288 344.654 232.138 344.654C231.938 344.654 231.288 345.504 230.638 346.554C228.888 349.354 225.938 352.305 221.838 355.355C217.737 358.355 216.687 359.705 214.487 364.255L213.037 367.406L213.287 365.156C214.037 359.755 215.987 356.555 221.438 352.005C224.988 349.004 227.388 345.604 228.788 341.654C229.888 338.504 231.038 330.653 231.038 326.003V322.102L228.938 323.802C227.738 324.753 225.088 326.153 223.038 326.903C217.287 329.053 212.837 331.503 210.437 333.953C209.237 335.153 208.137 336.153 207.887 336.153C207.036 336.153 210.137 331.203 212.137 329.303C213.387 328.203 216.587 326.203 219.287 324.853C224.738 322.102 226.888 320.302 228.488 317.052C230.088 313.702 229.888 310.051 227.888 304.751C226.938 302.351 225.788 298.851 225.288 297L224.388 293.6L222.438 296.75C221.188 298.701 217.487 302.851 212.537 307.651C203.836 316.152 202.936 317.452 199.936 326.303C197.636 332.903 197.686 338.404 200.036 347.404C201.486 352.905 201.736 354.705 201.736 359.155C201.736 362.055 201.436 365.756 201.086 367.406C200.336 371.106 196.586 378.957 194.836 380.607C193.585 381.807 193.585 381.707 195.336 377.656C197.486 372.706 198.486 367.556 198.536 361.405C198.536 357.005 197.886 353.655 195.686 346.254L194.736 343.104L192.185 347.004C189.535 351.104 185.035 355.805 180.485 359.255C177.784 361.305 169.784 365.356 168.984 365.056C168.734 364.956 170.734 363.455 173.384 361.655C178.684 358.105 183.735 352.805 186.885 347.454C188.335 344.954 192.235 334.703 191.885 334.303C191.835 334.253 190.535 335.003 189.035 335.953C184.085 339.004 175.434 341.104 167.534 341.154C162.633 341.204 156.983 342.204 153.082 343.804C150.532 344.854 150.082 344.904 150.732 344.204C153.082 341.604 159.033 339.554 166.533 338.654C176.134 337.553 181.885 335.603 187.285 331.603C191.885 328.303 193.035 326.503 196.586 317.952C198.486 313.252 202.336 307.401 205.336 304.651C206.536 303.551 207.537 302.551 207.537 302.451C207.537 302.301 206.786 302.451 205.936 302.651C205.036 302.901 201.686 303.351 198.486 303.601C188.535 304.551 186.235 305.601 181.185 311.702C174.584 319.702 173.084 321.102 168.834 323.152C166.583 324.252 163.883 325.253 162.783 325.403C160.833 325.703 160.833 325.703 164.033 323.902C168.384 321.552 173.034 316.802 176.034 311.752C177.434 309.501 178.534 307.551 178.534 307.401C178.534 307.301 176.684 307.851 174.434 308.651C162.933 312.602 151.282 312.852 142.282 309.351C138.731 307.951 135.881 306.601 136.081 306.401C136.181 306.301 138.331 306.701 140.782 307.251C144.082 308.001 147.182 308.301 152.532 308.351C159.083 308.401 160.283 308.251 164.783 306.951C167.484 306.201 170.784 305.051 172.034 304.451C175.384 302.751 183.335 299.801 186.785 298.951C188.435 298.551 192.235 297.851 195.186 297.4C201.936 296.35 205.886 295.1 210.137 292.6C216.887 288.65 219.687 282.949 221.988 268.898C222.588 265.198 224.638 257.247 225.838 253.897C227.738 248.797 233.338 243.946 240.939 241.046C245.639 239.196 249.19 238.446 258.94 237.146C271.241 235.496 277.242 233.846 284.792 229.995C289.993 227.345 290.943 226.395 286.792 227.945C279.242 230.746 271.641 232.346 261.991 233.146C247.239 234.346 240.889 235.646 234.489 238.896C233.088 239.596 231.788 240.096 231.688 239.946C231.388 239.646 233.038 236.496 236.539 230.595C241.839 221.695 243.539 219.995 251.29 215.994C256.19 213.444 262.241 211.844 273.291 210.094C288.243 207.794 296.143 205.144 304.044 199.893C308.844 196.693 308.894 196.193 304.194 198.543C296.543 202.393 286.342 205.144 277.042 205.844C268.391 206.544 256.74 208.844 251.84 210.894C250.99 211.244 250.99 211.194 251.59 210.094C252.59 208.194 272.041 189.192 274.392 187.792C277.792 185.792 283.792 183.692 291.293 181.842C300.293 179.592 304.744 177.742 309.594 174.341C314.895 170.641 314.995 170.141 309.944 172.841C305.044 175.491 299.793 177.092 290.393 178.892C286.592 179.592 282.892 180.392 282.142 180.692C281.292 181.042 283.992 177.942 289.543 172.291C294.393 167.391 300.043 161.34 302.094 158.89C306.544 153.59 313.244 144.639 312.944 144.389C312.844 144.289 311.294 145.789 309.544 147.789C305.594 152.19 294.143 162.99 287.042 168.991C279.892 175.041 272.891 180.692 272.691 180.492C272.641 180.392 272.791 179.592 273.041 178.642C273.291 177.742 273.991 174.341 274.542 171.191C275.842 163.891 276.742 160.64 278.592 156.89L280.042 153.89L278.492 155.64C275.492 159.04 273.641 163.54 271.091 173.641C268.791 182.842 267.791 184.442 259.19 192.293C255.14 195.993 250.69 200.193 249.29 201.593C247.139 203.844 245.439 204.994 246.239 203.693C246.389 203.443 246.739 198.093 247.039 191.793C247.54 179.292 248.39 174.291 250.99 168.141C253.09 163.09 251.59 164.741 248.59 170.791C245.239 177.492 244.139 182.142 243.539 191.643C242.989 199.843 242.489 203.443 241.239 207.644C240.339 210.744 239.839 211.494 234.989 217.895C232.938 220.645 229.988 224.795 228.488 227.145L225.788 231.396L225.438 227.395C225.238 225.195 224.488 220.545 223.788 217.044C222.138 208.644 221.738 200.743 222.688 194.743C223.488 189.442 223.138 189.342 221.638 194.393C219.237 202.443 218.987 209.144 220.588 220.495C222.138 231.246 221.788 237.246 219.287 243.896C218.287 246.647 216.637 251.297 215.687 254.247C214.687 257.197 213.737 259.498 213.487 259.398C212.187 258.548 206.636 246.397 204.986 240.696C201.986 230.295 201.786 228.895 201.786 218.145C201.836 209.094 201.986 207.344 202.986 203.143C209.187 178.092 226.438 160.24 255.04 149.389C258.49 148.089 265.441 145.789 270.541 144.289C294.143 137.389 294.443 137.289 299.793 135.288C310.294 131.388 319.195 126.388 325.295 120.937L327.796 118.737L328.646 121.437C329.096 122.937 330.096 128.038 330.746 132.738Z" fill="#123524"/>
<path d="M407.452 445.223L407.552 476.125H402.802H398.051L397.951 474.725C397.901 473.975 397.851 472.775 397.901 471.975C397.901 471.225 397.801 470.625 397.651 470.625C397.551 470.625 396.651 471.325 395.651 472.175C394.651 473.075 392.601 474.375 391.051 475.075C388.551 476.275 387.751 476.375 382.3 476.375C375.35 476.325 372.249 475.375 368.149 472.125C357.998 464.174 357.548 445.623 367.199 436.822C375.25 429.422 387.101 428.621 395.301 434.922L397.051 436.222V425.171V414.07L402.202 414.22L407.302 414.37L407.452 445.223Z" fill="#123524"/>
<path d="M138.882 417.921C146.232 419.421 151.133 423.071 153.933 429.071C155.783 433.072 156.033 439.672 154.533 444.123C152.983 448.773 149.733 452.723 145.782 454.723C144.682 455.273 143.732 455.823 143.632 455.873C143.432 456.024 148.782 464.024 154.283 471.875L157.083 475.875L151.483 476.025C148.382 476.075 145.582 476.075 145.232 475.925C144.882 475.775 142.032 471.725 138.832 466.924L133.031 458.124H125.281H117.53V467.124V476.125H112.03H106.529V446.623V417.121H120.78C131.831 417.121 135.931 417.321 138.882 417.921Z" fill="#123524"/>
<path d="M288.543 426.371V431.622H294.793H301.044V435.872V440.122H294.743H288.493L288.643 452.223C288.793 462.824 288.893 464.524 289.693 465.674C291.343 468.124 294.893 468.825 298.394 467.374C299.394 466.924 300.394 466.774 300.594 466.974C300.794 467.224 301.444 468.775 302.044 470.475C303.444 474.325 303.194 474.725 298.794 475.875C296.443 476.525 294.543 476.675 291.693 476.475C285.143 476.025 281.742 473.925 279.442 468.875C278.342 466.524 278.292 465.674 278.142 453.223L277.942 440.122H274.242H270.542V435.872V431.622H274.292H278.042V426.371V421.121H283.292H288.543V426.371Z" fill="#123524"/>
<path d="M195.836 432.172C202.186 434.522 206.336 438.172 208.937 443.673C214.137 454.674 209.987 468.175 199.736 473.725C192.735 477.525 182.585 477.625 175.184 474.075C171.884 472.525 166.984 467.525 165.383 464.074C158.933 450.373 166.033 435.522 181.035 431.372C184.785 430.322 191.935 430.722 195.836 432.172Z" fill="#123524"/>
<path d="M247.59 431.122C254.54 432.472 261.191 437.472 263.941 443.523C268.291 452.923 266.591 463.174 259.591 470.125C255.09 474.575 249.59 476.625 242.289 476.625C229.739 476.625 220.388 469.074 218.488 457.324C217.338 450.173 219.988 442.172 225.188 437.272C228.788 433.822 232.189 432.222 238.289 430.922C240.239 430.522 244.94 430.622 247.59 431.122Z" fill="#123524"/>
<path d="M335.596 431.122C341.097 432.172 347.047 436.272 349.697 440.773C351.397 443.673 352.898 448.223 353.298 451.974C353.948 457.624 355.648 457.124 335.246 457.124H317.495L317.845 458.224C319.195 462.674 321.795 465.375 326.346 467.125C331.446 469.075 338.796 467.875 342.847 464.474L344.397 463.124L347.297 466.175L350.197 469.175L348.497 470.975C343.997 475.675 334.046 477.875 325.446 476.075C310.494 472.925 302.944 457.074 309.844 443.273C314.495 434.022 324.895 429.122 335.596 431.122Z" fill="#123524"/>
<path d="M379.3 440.222C374.599 441.872 371.299 446.223 370.749 451.523C370.049 457.924 372.699 463.724 377.399 466.274C381.15 468.274 386.05 468.274 389.95 466.274C393.101 464.724 395.701 461.674 396.551 458.724C396.801 457.724 397.051 455.273 397.051 453.323C397.051 447.273 393.701 442.123 388.6 440.322C386.45 439.522 381.4 439.472 379.3 440.222Z" fill="#F5F0E8"/>
<path d="M117.53 437.622V449.223L126.681 449.023C134.582 448.873 136.082 448.723 138.032 447.823C146.232 444.072 146.782 431.971 139.032 427.621C136.882 426.421 136.332 426.371 127.181 426.221L117.53 426.021V437.622Z" fill="#F5F0E8"/>
<path d="M182.335 440.372C175.484 442.823 171.734 451.823 174.484 459.174C176.534 464.624 180.935 467.574 186.985 467.724C193.085 467.824 197.936 464.474 199.886 458.874C200.936 455.673 200.586 449.623 199.136 446.823C197.786 444.173 194.135 440.972 191.635 440.222C189.035 439.422 184.735 439.522 182.335 440.372Z" fill="#F5F0E8"/>
<path d="M238.239 440.123C230.939 442.373 226.889 450.673 229.289 458.324C232.339 468.075 245.49 471.075 252.29 463.524C258.091 457.174 256.591 445.873 249.39 441.423C247.44 440.223 246.39 439.923 243.39 439.823C241.44 439.723 239.089 439.873 238.239 440.123Z" fill="#F5F0E8"/>
<path d="M326.296 440.072C324.246 440.722 322.145 442.122 320.595 443.922C319.045 445.623 318.645 446.423 317.845 448.973L317.495 450.123H330.246C344.397 450.123 343.747 450.323 342.347 446.873C340.247 441.922 336.497 439.572 330.696 439.672C328.846 439.722 326.846 439.872 326.296 440.072Z" fill="#F5F0E8"/>
<path d="M237.289 328.153C236.939 341.654 237.239 344.754 239.789 351.405C240.489 353.305 241.239 355.305 241.389 355.755C241.539 356.255 241.789 356.655 241.99 356.655C242.64 356.655 245.39 353.455 247.69 350.055C250.69 345.654 251.69 342.054 251.44 336.904C251.14 330.953 249.84 328.553 243.19 321.653L237.639 315.902L237.289 328.153Z" fill="#F5F0E8"/>
</svg>
